<svg width="727" height="633" viewBox="0 0 727 633" fill="none" xmlns="http://www.w3.org/2000/svg">
<path d="M629.872 548.306C630.39 528.941 623.723 512.977 614.981 512.65C606.24 512.324 598.734 527.757 598.217 547.123C597.7 566.488 604.585 583.673 613.326 584C622.067 584.327 629.355 567.672 629.872 548.306Z" fill="#EEEEEE" fill-opacity="0.2"/>
<path d="M562.331 261.084C560.258 257.747 558.381 254.244 556.714 250.602L598.512 244.074L553.526 242.792C549.507 231.524 547.474 219.404 547.551 207.173C547.628 194.943 549.812 182.86 553.971 171.663L613.326 210.946L558.973 160.471C564.469 150.002 571.728 140.984 580.298 133.98C588.869 126.975 598.566 122.134 608.787 119.759C619.008 117.383 629.533 117.524 639.705 120.172C649.878 122.82 659.481 127.919 667.915 135.151C676.35 142.383 683.435 151.593 688.729 162.206C694.024 172.82 697.414 184.61 698.688 196.842C699.963 209.074 699.095 221.485 696.138 233.303C693.181 245.12 688.198 256.09 681.501 265.53C684.738 270.725 687.492 276.318 689.715 282.212L634.847 313.386L693.019 292.658C696.685 306.944 697.282 322.087 694.756 336.715C692.229 351.343 686.66 364.994 678.551 376.433C686.995 389.993 692.045 406.091 693.122 422.886C694.198 439.681 691.259 456.495 684.64 471.407C678.021 486.318 667.988 498.725 655.691 507.208C643.393 515.692 629.326 519.909 615.098 519.378C600.869 518.847 587.055 513.59 575.233 504.207C563.411 494.824 554.06 481.694 548.247 466.319C542.435 450.943 540.397 433.943 542.366 417.262C544.334 400.58 550.231 384.891 559.38 371.988C549.295 355.784 544.104 336.041 544.639 315.927C545.174 295.814 551.404 276.496 562.331 261.075V261.084Z" fill="#EEEEEE" fill-opacity="0.2"/>
<path d="M427.661 537.354C428.231 515.991 423.945 542.971 419.407 542.802C414.869 542.632 411.797 515.376 411.226 536.739C410.656 558.102 413.872 575.558 418.41 575.728C422.949 575.898 427.09 558.717 427.661 537.354Z" fill="#EEEEEE" fill-opacity="0.2"/>
<path d="M392.027 408.616C390.945 406.883 389.97 405.06 389.108 403.161L410.821 399.77L387.448 399.107C385.362 393.253 384.308 386.957 384.349 380.604C384.39 374.252 385.525 367.976 387.686 362.16L418.512 382.57L390.276 356.351C393.124 350.899 396.892 346.202 401.344 342.551C405.796 338.9 410.836 336.374 416.15 335.132C421.464 333.889 426.937 333.957 432.228 335.329C437.519 336.702 442.513 339.351 446.9 343.111C451.287 346.87 454.972 351.659 457.724 357.179C460.476 362.7 462.237 368.832 462.896 375.193C463.555 381.555 463.099 388.008 461.555 394.152C460.012 400.295 457.414 405.996 453.925 410.898C455.608 413.594 457.038 416.499 458.19 419.562L429.692 435.744L459.911 424.989C461.814 432.419 462.12 440.293 460.803 447.899C459.485 455.504 456.585 462.601 452.366 468.545C456.753 475.589 459.377 483.951 459.936 492.675C460.496 501.4 458.97 510.135 455.532 517.881C452.093 525.627 446.882 532.073 440.494 536.48C434.106 540.887 426.798 543.078 419.407 542.802C412.016 542.526 404.84 539.795 398.699 534.92C392.558 530.046 387.7 523.225 384.681 515.238C381.662 507.251 380.604 498.419 381.627 489.754C382.65 481.088 385.714 472.939 390.468 466.236C385.226 457.819 382.528 447.561 382.807 437.111C383.085 426.661 386.325 416.625 392.004 408.616H392.027Z" fill="#EEEEEE" fill-opacity="0.2"/>
<path d="M528.103 548.384C528.507 533.247 525.156 520.839 520.618 520.669C516.08 520.499 512.073 532.632 511.669 547.769C511.264 562.906 514.616 575.315 519.154 575.485C523.692 575.654 527.699 563.521 528.103 548.384Z" fill="#EEEEEE" fill-opacity="0.2"/>
<path d="M492.779 408.369C491.697 406.635 490.722 404.812 489.86 402.914L511.573 399.523L488.2 398.859C486.114 393.005 485.06 386.709 485.101 380.357C485.141 374.004 486.277 367.728 488.438 361.913L519.264 382.322L491.028 356.103C493.876 350.652 497.644 345.954 502.096 342.303C506.548 338.652 511.588 336.127 516.902 334.884C522.216 333.642 527.689 333.709 532.98 335.082C538.271 336.455 543.265 339.104 547.652 342.863C552.039 346.623 555.724 351.412 558.476 356.932C561.228 362.452 562.989 368.584 563.648 374.946C564.307 381.307 563.851 387.761 562.307 393.904C560.764 400.048 558.167 405.748 554.677 410.651C556.36 413.347 557.79 416.252 558.942 419.314L530.444 435.497L560.663 424.742C562.566 432.172 562.872 440.046 561.555 447.651C560.237 455.257 557.337 462.353 553.118 468.298C557.505 475.341 560.129 483.703 560.688 492.428C561.248 501.152 559.722 509.887 556.284 517.634C552.845 525.38 547.634 531.825 541.246 536.232C534.858 540.639 527.55 542.83 520.159 542.554C512.768 542.279 505.592 539.547 499.451 534.673C493.31 529.798 488.452 522.978 485.433 514.99C482.414 507.003 481.356 498.172 482.379 489.506C483.402 480.841 486.466 472.691 491.22 465.989C485.978 457.572 483.28 447.314 483.559 436.864C483.837 426.414 487.077 416.378 492.756 408.369H492.779Z" fill="#EEEEEE" fill-opacity="0.2"/>
<path d="M721.342 616.397C721.342 622.451 703.288 628.124 671.783 632.999H75.8702C49.3569 633.064 23.3014 625.018 0.352949 609.679L0 609.448C9.05409 605.637 25.3975 602.082 47.6414 598.874L48.6389 598.732C58.6137 597.323 69.7625 595.984 81.9472 594.717C82.2541 594.717 82.5687 594.664 82.8756 594.619C92.5435 593.627 102.828 592.696 113.729 591.827C114.074 591.827 114.411 591.756 114.757 591.739C118.962 591.39 123.253 591.059 127.632 590.746L129.32 590.622C161.201 588.335 197.441 586.509 236.741 585.304H236.787C242.292 585.126 247.854 584.97 253.476 584.834C259.727 584.662 266.055 584.512 272.459 584.382C277.347 584.258 282.296 584.169 287.26 584.08H287.375C309.773 583.69 332.914 583.495 356.578 583.495C415.092 583.495 470.398 584.727 519.405 586.943H519.544C527.078 587.28 534.475 587.652 541.688 588.034L547.826 588.37C555.965 588.819 563.893 589.301 571.612 589.815C662.383 595.78 721.342 605.468 721.342 616.397Z" fill="#3E2723"/>
<path d="M25.4593 590.567L33.4873 590.54H44.8062L59.1175 314.048L200.844 32.7784L194.684 24.9145V5L41.4083 307.532L25.4593 590.567Z" fill="#FFB300"/>
<path d="M33.9455 590.567H44.4323L58.7778 314.007L200.844 32.6672L194.669 24.8013L48.1299 309.792L33.9455 590.567Z" fill="#6D4C41"/>
<path d="M1.41443 591.866L369.851 625.899L370.165 625.927L726.731 599.457L727 599.438V581.263L334.109 572.56L6.32077 572.18H3.92518L3.66412 574.219L1.41443 591.866Z" fill="#FFB300"/>
<path d="M1.41443 591.866L369.851 625.899L370.165 625.927L726.731 599.457L727 599.104V581.643H726.685L369.851 596.027L6.32077 572.18H6.26702L5.62205 572.69L3.66412 574.219L1.41443 591.866Z" fill="#6D4C41"/>
<path d="M1.41443 593.359L370.572 625.927V597.342L5.63029 575.009L3.66853 576.472L1.41443 593.359Z" fill="#6D4C41"/>
<path d="M195 19.3221L357.292 225.879L352.275 589.215L366.061 591.189L366.291 591.225H380.077L381.726 241.481L685.62 361.853L690.745 576.179L705.597 578.153L696.898 346.988L379.218 214.735L205.027 0H195V19.3221Z" fill="#FFB300"/>
<path d="M380.473 239.793L381.727 246.496L686.681 367.164L691.823 582.018L702.955 583.496L694.225 362.696L380.473 239.793Z" fill="#6D4C41"/>
<path d="M195.187 24.3233L358.004 230.893L352.97 594.251L366.8 596.225L370.572 219.003L195.187 5V24.3233Z" fill="#6D4C41"/>
<path d="M493.625 412.351L688.382 457.612L697.298 453.396L697.267 452.655L493.625 412.351Z" fill="#6D4C41"/>
<path d="M500.696 293.54L505.258 590.567L527.57 589.678L524.891 296.381L518.951 294.04L517.65 293.54H500.696Z" fill="#FFB300"/>
<path d="M500.696 293.54V293.586L505.198 590.567L519.083 590.023V293.54H500.696Z" fill="#6D4C41"/>
<path d="M278.604 345.368C279.212 345.918 279.948 346.196 280.695 346.159C281.443 346.121 282.158 345.769 282.729 345.16C283.848 343.887 284.56 342.146 284.735 340.26C285.486 339.967 285.869 341.206 286.35 341.963C287.191 343.249 288.904 343.23 289.671 344.602C290.204 345.548 290.084 346.863 290.459 347.931C290.948 349.313 292.157 350.031 292.984 351.148C293.764 352.367 294.328 353.783 294.637 355.3L295.869 359.954C296.458 361.889 296.837 363.916 296.996 365.98C297.073 367.011 296.987 368.052 296.742 369.041C296.497 370.03 296.098 370.947 295.568 371.74C293.915 373.982 291.203 374.219 288.807 374.152C288.006 374.174 287.207 374.056 286.433 373.802C284.307 372.97 282.947 370.274 282.383 367.559C281.82 364.844 281.88 361.997 281.549 359.216C281.192 356.485 280.561 353.821 279.671 351.289C279.01 349.322 277.192 346.39 277.222 344.299C277.763 344.299 278.154 344.923 278.604 345.368Z" fill="#212121"/>
<path d="M226.818 331.085C226.996 331.955 226.996 332.866 226.818 333.736C226.625 334.344 226.352 334.908 226.01 335.408C224.816 337.308 223.495 339.081 222.061 340.708C222.791 342.722 224.107 344.325 225.748 345.202C227.378 346.057 229.087 346.661 230.837 346.997C231.711 347.28 232.62 347.358 233.517 347.225C234.343 346.969 235.125 346.531 235.826 345.933L242.678 340.87C243.712 340.179 244.67 339.326 245.527 338.334C246.784 336.74 247.495 334.61 247.513 332.387C247.545 331.989 247.458 331.59 247.267 331.266C247.004 330.984 246.675 330.814 246.328 330.781C243.918 330.126 242.016 327.713 240.938 324.977C239.964 322.173 239.333 319.205 239.068 316.171L231.761 320.921C230.676 321.634 229.598 322.346 228.474 322.963C227.758 323.362 226.31 323.695 225.802 324.502C224.832 325.994 226.564 329.29 226.818 331.085Z" fill="#6D4C41"/>
<path d="M221.759 338.052C220.733 339.046 219.932 340.324 219.428 341.773C218.957 343.567 219.428 345.459 219.853 347.234C221.846 354.801 223.369 362.53 224.409 370.358C225.047 375.738 225.282 381.199 225.594 386.641C226.232 397.742 227.158 415.441 228.396 426.47C232.952 426.712 237.394 425.143 241.913 424.569C250.357 423.511 259.051 425.932 267.321 423.673C265.316 414.321 263.311 398.351 261.307 389.008C260.42 385.327 259.805 381.562 259.469 377.756C259.294 375.021 259.401 372.277 259.431 369.524C259.499 364.145 259.249 358.765 258.998 353.385C258.71 347.108 258.421 340.832 257.161 334.69C257.073 333.907 256.762 333.183 256.28 332.637C255.52 331.982 254.533 332.215 253.63 332.359C250.863 332.774 248.062 331.99 245.747 330.153C244.745 329.346 243.401 328.36 242.467 329.256C242.068 329.797 241.805 330.459 241.707 331.166C241.294 332.435 240.656 333.584 239.837 334.538C239.017 335.492 238.034 336.229 236.954 336.698C234.79 337.624 232.524 338.174 230.226 338.33C229.523 338.509 228.789 338.411 228.138 338.052C227.059 337.272 226.983 334.466 225.624 334.277C224.432 334.116 222.564 337.147 221.759 338.052Z" fill="#212121"/>
<path d="M223.42 356.594C223.871 356.968 224.427 357.394 224.923 357.08C225.125 356.915 225.298 356.689 225.426 356.421C226.285 354.876 227.002 353.195 227.56 351.417C227.656 351.165 227.71 350.889 227.718 350.606C227.718 349.958 227.29 349.482 226.891 349.107C224.758 347.273 222.464 345.803 220.062 344.73C218.078 343.717 216.005 342.836 213.901 343.089C213.111 343.161 212.339 343.447 211.633 343.931C210.927 344.415 210.3 345.087 209.792 345.905C208.289 348.509 210.806 349.299 212.384 350.242C216.035 352.48 219.987 353.777 223.42 356.594Z" fill="#1565C0"/>
<path d="M220.659 372.955C220.631 373.173 220.648 373.397 220.71 373.606C220.771 373.816 220.875 374.007 221.013 374.162C221.258 372.801 220.938 371.364 221.19 369.994C221.561 367.934 223.323 366.382 223.475 364.312C220.246 363.593 220.685 370.732 220.659 372.955Z" fill="#212121"/>
<path d="M356.428 300.613V309.601L226.579 339.623L219.843 344.459H196.601V339.394L324.179 302.857L356.428 300.613Z" fill="#FFB300"/>
<path d="M356.428 310.513L226.579 339.749L219.843 344.459H196.601L325.126 312.708L356.428 310.513Z" fill="#6D4C41"/>
<path d="M356.428 300.613L356.428 309.659L324.852 311.928L323.897 302.872L356.428 300.613Z" fill="#6D4C41"/>
<path d="M288.12 343.826C288.908 344.327 289.66 344.899 290.371 345.538C291.212 346.4 291.967 347.369 292.623 348.428C295.842 353.302 298.814 358.967 298.498 365.115C298.505 366.009 298.361 366.897 298.074 367.726C297.786 368.555 297.362 369.309 296.825 369.945C295.497 371.271 293.591 371.333 291.85 371.333C289.959 371.333 287.97 371.333 286.334 370.191C284.698 369.049 283.332 366.827 281.396 366.88C281.123 366.933 280.844 366.933 280.571 366.88C279.903 366.625 279.768 365.598 279.333 364.948C278.582 363.78 276.999 364.07 275.821 364.579C274.642 365.089 273.337 365.853 272.174 365.264C271.498 364.847 270.946 364.201 270.59 363.411C267.806 358.141 267.213 351.809 266.688 345.688C266.365 341.964 263.904 329.264 270.695 332.154C273.697 333.418 276.503 335.948 279.235 337.801L288.12 343.826Z" fill="#212121"/>
<path d="M283.531 336.45C283.172 335.151 282.963 333.8 282.909 332.434C282.909 329.689 283.961 327.109 285.02 324.658L276.248 326.076C275.189 326.25 274.007 326.506 273.408 327.558C273.181 328.079 273.062 328.658 273.062 329.246C273.062 329.833 273.181 330.412 273.408 330.933C273.848 331.977 274.198 333.071 274.452 334.199C274.472 335.186 274.567 336.169 274.736 337.136C275.009 337.846 275.392 338.488 275.864 339.029C278.374 342.341 280.254 346.247 282.127 350.117C282.073 350.007 287.415 345.076 287.2 343.466C287.077 342.551 285.534 341.454 285.043 340.575C284.365 339.301 283.855 337.909 283.531 336.45Z" fill="#6D4C41"/>
<path d="M254.757 555.311C253.332 553.227 251.365 551.787 249.176 551.225C246.987 550.663 244.705 551.013 242.702 552.216C242.273 552.46 241.895 552.817 241.595 553.26C240.837 554.542 241.322 556.309 241.39 557.893C241.565 561.757 239.017 564.898 236.728 567.599C235.499 569.045 234.248 570.593 233.695 572.561C233.141 574.53 233.551 577.029 235.037 578.055C235.685 578.448 236.391 578.684 237.114 578.751C239.538 579.322 242.022 579.405 244.468 578.998C246.887 578.439 249.26 576.782 250.306 574.09C250.508 573.36 250.842 572.694 251.284 572.14C252.619 570.867 254.666 572.36 256.182 571.453C257.433 570.703 257.486 569.521 257.501 567.965C257.547 563.662 257.016 558.79 254.757 555.311Z" fill="#1565C0"/>
<path d="M270.393 554.68C271.291 557.606 271.415 560.793 271.532 563.918C271.597 565.724 271.641 567.656 270.853 569.182C270.065 570.709 268.525 571.512 267.05 571.892C264.006 572.668 260.481 571.937 258.518 568.948C257.014 566.663 256.7 563.53 256.977 560.568C257.211 558.138 257.707 555.294 256.299 553.569C255.934 553.109 255.459 552.783 255.123 552.287C254.394 551.185 254.51 549.523 254.904 548.169C255.418 546.874 255.803 545.506 256.05 544.096C256.109 543.428 265.933 544.566 266.838 545.117C268.072 545.866 267.882 547.121 268.254 548.638C268.773 550.752 269.765 552.657 270.393 554.68Z" fill="#1565C0"/>
<path d="M275.125 423.66C277.165 425.221 277.953 428.289 278.27 431.138C279.143 438.944 277.613 446.833 277.497 454.713C277.389 465.751 280.093 476.991 277.783 487.683C276.4 494.074 277.574 501.378 276.276 507.834C275.89 509.751 275.179 511.559 274.808 513.476C274.035 517.631 274.847 521.977 275.936 526.04C276.284 527.135 276.505 528.28 276.593 529.445C276.541 531.239 276.156 532.997 275.465 534.595L270.829 547.551C270.311 549.003 268.271 549.24 266.965 549.432C264.508 549.779 261.765 550.025 259.81 548.227C257.855 546.428 257.384 543.415 257.082 540.603C256.504 535.204 256.246 529.764 256.31 524.323C256.395 522.903 256.288 521.476 255.993 520.096C255.568 518.535 254.633 517.183 254.378 515.531C254.053 513.394 254.973 511.294 255.313 509.139C255.546 507.171 255.52 505.172 255.236 503.214C254.934 500.292 254.587 497.37 254.193 494.467C253.636 490.404 254.432 486.395 254.965 482.323C255.468 478.497 254.826 474.599 254.193 470.801C254.247 473.883 253.922 476.959 253.227 479.931C252.817 481.383 252.23 482.771 251.874 484.25C250.29 490.887 253.667 497.854 253.188 504.729C252.964 507.943 251.898 511.121 252.199 514.289C252.408 516.608 253.319 518.735 253.945 520.945C254.571 523.155 254.896 525.684 253.945 527.747C251.434 533.353 253.312 540.977 255.56 546.729C256.017 547.75 256.414 548.805 256.75 549.888C257.415 552.482 256.858 555.266 257.036 557.969C256.389 558.094 255.726 558.043 255.098 557.82C254.47 557.597 253.894 557.208 253.412 556.682C253.072 556.262 252.794 555.768 252.462 555.33C251.533 554.285 250.434 553.474 249.232 552.947C248.526 552.48 247.721 552.262 246.914 552.317C246.065 552.597 245.301 553.158 244.712 553.933C243.947 554.727 243.137 555.457 242.285 556.115C241.923 556.445 241.499 556.667 241.049 556.764C240.823 556.805 240.591 556.761 240.387 556.638C240.184 556.515 240.018 556.32 239.913 556.079C239.865 555.927 239.836 555.767 239.828 555.604C239.541 552.847 239.389 550.073 239.372 547.295C239.372 542.52 234.535 539.233 233.925 534.513C233.438 530.705 234.342 526.825 234.041 522.99C233.894 521.018 233.43 519.082 233.461 517.11C233.461 515.832 233.708 514.581 233.793 513.312C233.864 511.903 233.846 510.49 233.739 509.085L233.5 504.674C233.268 500.319 233.013 495.873 231.56 491.892C229.838 487.244 228.818 482.274 228.547 477.21C228.392 474.014 228.493 470.819 228.184 467.614C227.905 464.72 227.287 461.843 227.465 458.94C227.612 456.694 228.238 454.521 228.384 452.275C228.686 447.956 227.295 443.756 226.205 439.62C225.116 435.484 224.312 430.9 225.742 426.91C225.946 426.255 226.286 425.672 226.731 425.212C227.279 424.784 227.903 424.509 228.554 424.409C241.812 421.118 255.401 420.094 268.905 421.368C271.106 421.516 273.243 422.303 275.125 423.66Z" fill="#212121"/>
<path d="M232.044 326.071C239.074 326.071 244.774 319.739 244.774 311.927C244.774 304.116 239.074 297.783 232.044 297.783C225.014 297.783 219.314 304.116 219.314 311.927C219.314 319.739 225.014 326.071 232.044 326.071Z" fill="#6D4C41"/>
<path d="M242.469 359.599C239.625 356.408 238.377 351.781 236.305 347.849C234.893 345.205 233.09 342.879 230.98 340.98C229.92 340.158 228.947 339.19 228.083 338.096C227.351 337.039 226.797 335.629 225.687 335.222C225.229 335.105 224.753 335.12 224.301 335.267C223.848 335.413 223.433 335.686 223.091 336.062C222.411 336.822 221.768 337.624 221.164 338.467C217.898 342.435 212.157 342.986 209.568 347.578C208.87 348.551 208.395 349.718 208.189 350.967C207.444 357.65 208.917 364.414 212.304 369.858C212.959 371.12 213.966 372.078 215.155 372.57C214.993 374.255 215.184 375.961 215.709 377.541C217.136 383.261 218.889 388.863 220.956 394.308C220.462 396.437 220.117 398.611 219.924 400.806C219.385 406.329 219.885 411.933 219.377 417.465C218.961 421.984 217.836 426.386 217.797 430.914C217.797 431.637 217.851 432.496 218.383 432.866C218.666 433.037 218.982 433.115 219.3 433.092L228.777 433.427C234.278 433.617 239.833 433.806 245.25 432.613C245.971 432.488 246.671 432.229 247.323 431.845C249.156 430.643 249.765 427.931 250.058 425.518C250.44 422.388 250.592 419.224 250.512 416.063C251.66 420.321 253.024 424.723 256.492 426.566C258.325 427.543 260.421 427.47 262.432 427.407C266.766 427.181 271.086 426.658 275.369 425.843C275.633 425.882 275.9 425.847 276.151 425.742C276.401 425.637 276.627 425.465 276.811 425.239C276.994 425.013 277.13 424.74 277.208 424.442C277.285 424.143 277.302 423.828 277.256 423.52L277.302 418.585C277.395 408.561 275.276 398.98 274.452 389.002C274.19 385.856 274.213 382.675 273.558 379.593C273.288 378.3 272.895 377.035 272.656 375.733C272.451 374.459 272.224 373.036 272.174 371.74L271.67 361.931C271.385 357.33 270.977 352.892 270.676 348.301C270.511 343.83 269.959 339.39 269.027 335.05C268.357 332.339 266.962 329.265 264.551 328.931C263.264 328.759 262.016 329.419 260.791 329.88C257.78 330.992 254.548 330.976 251.545 329.835C250.617 329.405 249.65 329.102 248.663 328.931C248.167 328.852 247.661 328.929 247.198 329.154C246.735 329.38 246.331 329.746 246.028 330.215C245.729 330.921 245.589 331.705 245.62 332.492C245.258 341.522 244.587 350.823 242.469 359.599Z" fill="#1565C0"/>
<path d="M230.574 360.556C227.06 356.17 223.453 351.703 218.925 348.914C217.141 347.813 215.113 346.982 213.138 347.397C211.163 347.813 209.326 349.843 209.417 352.217C209.478 353.688 210.233 354.988 210.469 356.432C210.744 358.056 210.347 359.789 210.774 361.36C211.121 362.395 211.64 363.337 212.299 364.13L217.697 371.703C219.984 374.862 222.272 378.066 225.215 380.25C228.158 382.434 231.97 383.454 235.202 381.901C237.502 380.636 239.415 378.558 240.677 375.954C242.018 373.427 242.964 370.665 244.222 368.057C246.18 363.889 248.763 360.179 251.846 357.109C250.26 356.621 248.27 355.935 247.271 354.401C246.987 353.913 246.745 353.393 246.547 352.849L245.312 349.69C244.892 349.664 244.472 349.741 244.078 349.917C243.685 350.092 243.326 350.362 243.025 350.71C242.495 351.434 241.927 352.119 241.325 352.759C240.25 353.715 238.793 353.977 237.817 355.069C237.44 355.538 237.098 356.045 236.796 356.585C236.058 357.734 235.121 358.682 234.048 359.367C232.975 360.052 231.791 360.457 230.574 360.556Z" fill="#212121"/>
<path d="M252.822 341.005C255.446 335.16 255.325 328.152 256.074 321.55C256.155 319.802 256.657 318.122 257.518 316.721C259.03 314.635 261.699 314.607 263.983 314.875C264.656 314.967 265.495 315.355 265.457 316.177C265.404 316.471 265.286 316.742 265.117 316.961C262.904 320.45 261.602 324.671 261.382 329.075C262.569 330.082 264.406 328.014 265.548 329.075C266.304 329.851 265.956 331.384 265.503 332.492C264.449 335.058 263.363 337.607 262.244 340.137C261.35 342.367 260.185 344.418 258.788 346.221C257.828 347.348 256.701 348.234 255.726 349.342C253.457 351.937 252.089 355.602 249.745 358.132C249.547 358.394 249.279 358.561 248.989 358.603C248.69 358.577 248.409 358.423 248.195 358.169C247.024 357.006 246.053 355.572 245.337 353.95C244.444 351.937 244.581 351.346 245.987 349.924C248.618 347.385 251.181 344.661 252.822 341.005Z" fill="#6D4C41"/>
<path d="M220.238 314.337C222.188 312.517 221.059 308.702 222.38 306.259C223.148 304.923 224.446 304.22 225.72 303.622C227.258 302.798 228.906 302.275 230.596 302.075C231.442 301.982 232.295 302.108 233.093 302.445C233.89 302.781 234.611 303.318 235.203 304.018C235.702 304.668 236.039 305.459 236.508 306.136C237.088 306.925 237.844 307.521 238.695 307.858C239.547 308.195 240.463 308.262 241.345 308.052C242.366 307.788 243.426 306.901 243.357 305.705C243.241 304.978 242.917 304.316 242.435 303.824L240.239 301.038C237.744 297.874 234.972 294.516 231.31 293.725C228.761 293.171 226.15 293.953 223.693 294.894C222.703 295.272 221.589 295.834 221.313 296.986C221.129 297.777 221.405 298.638 221.244 299.438C220.929 301.029 219.148 301.565 218.318 302.901C217.489 304.237 217.743 305.819 217.505 307.296C217.266 308.773 216.575 310.214 216.491 311.744C216.437 312.667 216.844 314.381 217.75 314.715C218.656 315.049 219.677 313.238 220.238 314.337Z" fill="#212121"/>
<path d="M243.36 304.789C242.71 300.878 241.309 297.185 239.261 293.98C237.439 290.986 234.905 288.664 231.964 287.295C230.494 286.633 228.913 286.363 227.339 286.506C225.766 286.649 224.241 287.202 222.879 288.122C220.858 289.787 219.285 292.076 218.341 294.726C216.345 299.687 215.606 305.749 217.925 310.513C218.85 309.216 220.437 309.802 221.839 309.331C223.596 308.753 225.083 307.402 226.755 306.558C231.802 303.989 237.966 306.069 243.36 304.789Z" fill="#FFB300"/>
<path d="M240.448 432.153V438.848L235.251 439.225H207.917V432.153H240.448Z" fill="#212121"/>
<path d="M240.448 431.438V439.225H207.569L120.224 309.566V303.441H138.535L240.448 431.438Z" fill="#FFB300"/>
<path d="M240.448 431.438V439.225H207.569L120.224 309.566V303.441H138.535L240.448 431.438Z" fill="#FFB300"/>
<path d="M240.448 431.438V439.225H207.569L120.224 309.566V303.441L208.042 431.438H240.448Z" fill="#6D4C41"/>
<path d="M129.506 324.658C129.74 324.658 129.893 325.045 130.01 325.361C130.606 326.845 131.117 328.412 131.539 330.042C130.683 330.334 129.213 330.662 128.789 329.457C128.562 328.848 128.833 324.6 129.506 324.658Z" fill="#212121"/>
<path d="M146.18 323.192C145.951 323.387 145.684 322.988 145.684 322.699V319.406C145.678 319.314 145.701 319.223 145.751 319.143C145.79 319.103 145.838 319.07 145.893 319.046C145.947 319.023 146.005 319.01 146.065 319.007C146.837 318.931 147.476 319.516 147.972 320.076C148.724 320.984 149.379 321.953 149.926 322.971L145.894 322.861" fill="#212121"/>
<path d="M186.889 381.547C187.585 380.768 188.328 380.049 189.113 379.396C191.208 377.745 193.742 377.093 196.095 376.04C198.447 374.987 200.837 373.282 201.753 370.515C202.211 368.785 202.36 366.962 202.191 365.16C202.213 364.405 202.1 363.654 201.859 362.955C201.571 362.337 201.161 361.811 200.664 361.42C197.471 358.635 193.19 358.412 189.226 358.698C180.487 359.337 171.922 361.86 163.954 366.142C163.532 366.306 163.163 366.617 162.895 367.034C162.739 367.421 162.669 367.848 162.69 368.275C162.549 370.907 162.84 373.547 163.545 376.049C164.589 379.227 166.737 381.788 167.637 385.028C168.046 386.483 168.182 388.027 168.538 389.491C168.829 391.003 169.587 392.333 170.663 393.222C173.651 395.329 176.473 392.499 178.545 390.304L186.889 381.547Z" fill="#212121"/>
<path d="M167.442 338.802L241.862 431.375V439.225H208.679L152.755 352.827" fill="#FFB300"/>
<path d="M167.442 338.802L241.862 431.375V439.225H208.679L152.755 352.827" fill="#FFB300"/>
<path d="M153.939 351.531L154.178 351.632L209.156 431.368H241.862V439.225H208.679L152.755 352.753L153.939 351.531Z" fill="#6D4C41"/>
<path d="M130.867 562.773C130.925 563.142 130.918 563.521 130.846 563.886C130.774 564.252 130.639 564.596 130.449 564.897C130.259 565.198 130.019 565.45 129.742 565.637C129.466 565.823 129.16 565.941 128.843 565.982C126.695 566.837 124.417 567.682 122.895 569.619C121.373 571.555 121.072 575.146 122.895 576.719C123.827 577.38 124.897 577.723 125.985 577.709C129.484 577.991 133.13 577.937 136.305 576.191C138.576 574.955 140.716 572.846 143.211 573.037C144.501 573.128 145.876 573.837 147.027 573.146C148.178 572.455 148.502 570.528 148.51 568.919C148.54 565.56 148.109 562.217 147.236 559.019C147.12 558.582 142.207 558.246 141.62 558.11L135.664 557.201C134.536 557.028 132.103 556.028 131.214 557.137C130.326 558.246 130.867 561.455 130.867 562.773Z" fill="#1565C0"/>
<path d="M167.106 539.138C167.36 540.792 167.771 542.406 168.333 543.949C169.163 546.446 170.226 549.1 172.26 550.311C174.107 551.404 176.373 551.009 178.252 549.972C179.035 549.588 179.722 548.971 180.246 548.181C180.852 546.932 181.123 545.495 181.022 544.059C181.022 540.506 180.844 536.834 179.47 533.676C178.29 530.921 176.234 528.553 176.203 525.504L169.132 527.12C168.753 527.163 168.393 527.332 168.092 527.607C167.868 527.886 167.712 528.232 167.642 528.608C166.887 532.043 166.705 535.62 167.106 539.138Z" fill="#1565C0"/>
<path d="M83.5759 454.117C83.2941 457.021 83.4128 460.132 84.6585 462.638C85.9042 465.145 88.529 466.804 90.798 465.803C90.9142 465.767 91.0233 465.703 91.1189 465.615C91.2144 465.526 91.2944 465.416 91.3541 465.289C91.4145 464.985 91.3801 464.663 91.2577 464.388C90.256 461.137 90.3385 457.539 91.4875 454.361C91.6358 453.946 91.9547 453.459 92.3032 453.621C92.449 453.711 92.5663 453.857 92.6369 454.036C92.9958 454.791 93.1755 455.653 93.1559 456.525C93.0512 457.315 93.0313 458.118 93.0966 458.914C93.2375 459.69 93.9196 460.42 94.5128 460.087C94.6843 459.958 94.8326 459.789 94.9486 459.589C95.0646 459.389 95.1459 459.163 95.1876 458.923C96.8411 453.107 96.0922 446.75 95.3359 440.664C95.3422 440.524 95.3232 440.385 95.2802 440.255C95.2372 440.125 95.1713 440.008 95.0872 439.913C95.003 439.817 94.9027 439.745 94.7932 439.702C94.6837 439.659 94.5677 439.646 94.4535 439.663C90.9537 439.239 89.0406 438.22 87.0386 442.179C85.3184 445.515 83.5759 450.105 83.5759 454.117Z" fill="#1565C0"/>
<path d="M125.268 437.594C124.198 442.89 123.121 448.248 123.052 453.689C123.071 457.078 123.286 460.461 123.694 463.815L124.496 471.694C124.771 474.351 125.039 476.998 125.428 479.628C125.677 480.982 125.813 482.363 125.833 483.749C125.758 485.116 125.577 486.471 125.291 487.798C124.81 490.584 124.542 493.415 124.489 496.259C124.405 500.808 124.878 505.357 125.176 509.906C125.771 518.971 125.682 528.081 124.909 537.127C124.6 539.569 125.045 542.061 126.162 544.142C126.615 544.798 126.988 545.527 127.27 546.307C127.842 548.391 126.506 550.474 126.162 552.612C125.942 554.279 126.287 555.982 127.12 557.347C127.954 558.712 129.208 559.627 130.608 559.891C136.72 560.755 143 560.364 148.508 563.694C149.088 561.674 147.82 559.381 148.401 557.325C148.768 556.051 149.776 555.223 150.464 554.15C151.387 552.514 151.848 550.569 151.778 548.6C151.805 546.029 151.421 543.476 150.647 541.076C149.998 539.074 149.066 537.1 149.119 534.953C149.119 533.897 149.432 532.787 149.073 531.814C148.827 531.255 148.492 530.757 148.088 530.349C145.804 527.37 144.401 523.584 144.092 519.568C143.794 515.582 143.902 511.568 144.413 507.613C144.787 503.847 145.292 499.871 147.301 496.932C146.369 488.021 146.917 478.979 148.913 470.32C149.111 469.52 149.425 468.592 150.112 468.401C150.385 468.367 150.661 468.413 150.917 468.533C151.172 468.653 151.399 468.845 151.579 469.092C152.778 470.429 153.351 472.367 153.871 474.223C154.444 476.234 155.025 478.381 154.589 480.437C154.406 481.347 154.039 482.148 153.825 483.021C153.36 484.776 153.442 486.672 154.054 488.362C154.353 488.979 154.54 489.664 154.604 490.372C154.534 490.981 154.379 491.571 154.146 492.119C153.863 493.196 153.773 494.331 153.882 495.452C153.991 496.573 154.297 497.654 154.78 498.624C155.754 500.556 156.955 502.312 158.348 503.837C157.683 507.329 157.855 510.974 158.844 514.355C158.916 514.507 158.961 514.675 158.978 514.848C158.995 515.021 158.984 515.197 158.944 515.365C158.806 515.71 158.455 515.838 158.18 516.083C157.416 516.829 157.889 518.24 158.401 519.213C159.804 521.885 161.353 524.444 163.039 526.874C164.567 529.048 164.429 533.242 166.706 534.025C167.662 534.271 168.652 534.271 169.609 534.025C171.855 533.615 174.361 532.842 175.461 530.477C175.912 529.503 176.095 528.32 176.798 527.592C177.501 526.865 178.41 526.737 178.799 525.864C179.189 524.99 178.753 523.844 178.883 522.834C179.013 521.824 179.754 521.015 179.991 519.95C180.556 517.494 178.15 515.474 177.821 512.963C177.348 509.324 181.198 506.594 181.038 502.955C180.702 495.049 180.488 487.106 180.144 479.2C179.712 472.118 179.651 465.011 179.961 457.92C180.228 453.507 180.725 448.885 179.365 444.782C177.409 438.996 172.015 435.748 166.797 435.129C161.579 434.51 156.377 435.984 151.205 436.948C142.621 438.524 133.9 438.741 125.268 437.594Z" fill="#212121"/>
<path d="M140.733 351.531C147.372 351.531 152.755 344.882 152.755 336.68C152.755 328.478 147.372 321.829 140.733 321.829C134.093 321.829 128.71 328.478 128.71 336.68C128.71 344.882 134.093 351.531 140.733 351.531Z" fill="#6D4C41"/>
<path d="M136.519 354.168C136.112 355.389 135.428 356.422 134.557 357.132C133.686 357.842 132.669 358.195 131.639 358.146C131.206 360.458 132.244 362.788 133.433 364.609C135.9 368.309 139.089 371.095 142.669 372.678C146.25 374.261 150.094 374.584 153.804 373.614C155.248 373.281 156.618 372.545 157.817 371.457C159.434 369.717 160.52 367.293 160.881 364.618C161.225 361.962 161.323 359.262 161.173 356.576C161.215 356.045 161.097 355.514 160.844 355.093C160.545 354.794 160.176 354.638 159.798 354.65C157.272 354.361 154.634 354.235 152.414 352.637C150.195 351.038 148.618 347.426 149.687 344.459C149.515 344.922 145.15 345.143 144.575 345.239C142.774 345.567 140.973 345.933 139.179 346.357C138.318 346.418 137.466 346.625 136.646 346.973C135.562 347.695 135.966 347.339 136.22 348.649C136.601 350.652 137.162 352.088 136.519 354.168Z" fill="#6D4C41"/>
<path d="M145.314 362.154C143.663 362.177 142.015 361.96 140.408 361.507C138.785 361.056 137.355 359.92 136.382 358.31C135.815 357.289 135.448 356.005 134.545 355.431C133.068 354.52 131.384 356.059 130.205 357.471C129.132 358.864 127.888 360.056 126.516 361.006C124.878 362.036 122.964 362.4 121.418 363.612C120.21 364.698 119.174 366.031 118.356 367.548L107.511 385.131C103.155 392.201 99.3666 399.79 95.486 407.252C92.1258 413.711 90.3654 421.145 87.8319 428.115C87.6312 428.541 87.5482 429.032 87.5946 429.518C87.6864 429.991 88.1686 430.374 88.5054 430.101C87.365 431.449 88.3676 433.745 88.0998 435.64C87.7952 436.966 87.16 438.151 86.2781 439.038C87.9628 438.777 89.6731 438.872 91.3298 439.321C93.042 439.898 94.6577 440.823 96.1059 442.054C97.0321 441.881 96.9479 439.922 97.6368 439.193C98.0501 438.765 98.6624 438.82 99.2058 438.692C101.249 438.218 102.061 435.294 103.63 433.645C104.939 432.269 106.791 431.823 108.176 430.529C110.427 428.424 110.909 424.68 112.088 421.573C113.09 418.94 114.667 416.645 115.547 413.948C116.121 412.199 116.397 410.304 117.216 408.691C118.525 406.085 120.989 404.701 123.339 403.452C124.824 402.66 126.401 401.84 128.001 401.967C127.916 406.204 127.465 410.376 128.238 414.513C128.506 415.97 128.881 417.392 129.202 418.84C130.664 425.363 131.009 432.16 131.077 438.883C134.594 437.926 138.186 437.413 141.793 437.353C144.633 437.253 147.465 437.69 150.305 437.626C153.672 437.553 157.002 436.779 160.37 436.506C163.737 436.232 167.258 436.506 170.236 438.328C169.994 432.554 170.13 426.766 170.641 421.018L171.453 411.962C171.636 409.331 171.976 406.718 172.471 404.145C172.915 402.068 173.558 400.063 174.048 397.995C175.77 390.707 175.456 382.926 175.127 375.337C174.958 371.438 173.695 367.602 172.211 364.131C171.673 362.842 171.059 361.6 170.374 360.414C168.579 357.471 166.188 355.118 163.423 353.572C160.658 352.027 157.609 351.341 154.56 351.577C154.171 351.591 153.787 351.69 153.427 351.868C152.781 352.361 152.277 353.076 151.981 353.918C150.397 357.306 148.099 360.145 145.314 362.154Z" fill="#212121"/>
<path d="M129.562 342.397C129.918 341.504 130.874 341.174 131.459 340.461C132.582 339.105 132.076 336.937 132.25 335.108C132.535 332.432 134.503 330.193 136.756 329.238C139.054 328.406 141.499 328.231 143.871 328.73C145.013 328.824 146.116 329.238 147.081 329.934C147.492 330.273 147.871 330.71 148.258 331.022C148.965 331.504 149.81 331.655 150.613 331.443C151.416 331.232 152.115 330.674 152.559 329.889C149.76 326.089 146.662 322.075 142.408 320.906C140.949 320.57 139.462 320.411 137.973 320.433C136.005 320.389 133.973 320.353 132.155 321.2C129.681 322.351 127.941 325.001 127.048 327.855C126.267 330.749 125.849 333.752 125.807 336.776C125.645 338.794 125.645 340.825 125.807 342.843C126.113 345.598 127.02 348.225 128.447 350.488C128.64 350.839 128.913 351.126 129.238 351.318C132.843 353.102 129.27 343.137 129.562 342.397Z" fill="#212121"/>
<path d="M152.755 326.944C152.332 322.744 149.75 319.275 147.006 316.483C144.794 314.063 142.16 312.223 139.282 311.088C136.384 310.098 133.049 310.312 130.566 312.319C128.568 313.933 127.3 316.501 126.324 319.087C125.041 322.139 124.406 325.503 124.471 328.897C124.663 332.268 126.078 335.684 128.599 337.387C129.505 335.835 131.081 335.033 132.595 334.399C139.194 331.494 145.924 329.005 152.755 326.944Z" fill="#FFB300"/>
<path d="M147.597 393.906L143.724 383.761C143.156 382.355 142.666 380.906 142.257 379.422C141.814 377.652 141.6 375.817 141.188 374.038C139.828 368.112 136.399 363.177 134.726 357.37C134.62 356.846 134.404 356.363 134.099 355.967C133.855 355.759 133.576 355.619 133.282 355.556C132.987 355.492 132.685 355.507 132.396 355.6C130.058 356.086 128.233 358.223 126.094 359.434C125.101 359.985 124.032 360.352 123.038 360.984C122.542 361.267 122.102 361.674 121.749 362.179C121.396 362.684 121.137 363.275 120.991 363.911C120.755 365.314 121.335 366.663 121.824 368.029C123.902 373.662 124.375 379.954 124.467 386.118C124.536 390.265 124.36 394.714 122.32 398.043C118.402 404.464 120.907 413.894 122.374 421.664C122.55 422.581 122.756 423.572 122.878 424.544C123.007 425.761 123.066 426.987 123.054 428.213C123.054 432.332 122.863 436.579 121.427 440.313C122.845 441.218 124.407 441.75 126.01 441.872C130.445 442.551 134.899 443.028 139.37 443.303C140.771 443.461 142.183 443.375 143.564 443.046C145.203 442.514 146.647 441.342 147.67 439.714C148.692 438.086 149.233 436.095 149.209 434.057C149.453 436.597 149.904 439.359 151.439 441.12C152.974 442.881 155.213 443.147 157.298 443.285C163.183 443.659 169.085 443.46 174.943 442.688C175.317 442.668 175.685 442.565 176.028 442.386C177.158 441.707 177.22 439.836 177.128 438.331C176.96 435.515 176.784 432.699 176.502 429.901C176.262 428.118 176.139 426.314 176.135 424.507C176.251 422.649 176.507 420.807 176.899 419.004C177.922 413.28 178.732 407.436 178.388 401.575C178.252 400.147 178.204 398.709 178.243 397.273C178.442 394.035 179.863 390.953 179.595 387.733C178.831 378.266 178.213 368.552 176.013 359.416C175.615 357.783 175.111 356.031 173.927 355.095C172.4 353.866 170.253 354.508 168.504 353.729C167.683 353.27 166.903 352.714 166.174 352.068C164.591 350.88 162.777 350.209 160.911 350.124C159.505 350.059 157.94 350.436 157.092 351.793C156.699 352.557 156.439 353.409 156.328 354.297C155.22 359.893 153.922 365.424 152.623 370.956L148.04 390.494C147.711 392.008 147.933 392.475 147.597 393.906Z" fill="#1565C0"/>
<path d="M161.982 354.14C159.389 355.612 156.507 357.499 155.73 361.042C155.576 361.663 155.543 362.325 155.633 362.967C155.823 363.722 156.184 364.385 156.669 364.868C157.155 365.351 157.742 365.631 158.352 365.672C159.572 365.71 160.785 365.422 161.916 364.825L177.214 358.26C177.629 358.086 178.103 357.826 178.207 357.297C178.234 356.964 178.182 356.628 178.059 356.334C177.585 354.833 177.118 351.762 176.125 350.713C175.31 349.866 173.695 350.164 172.71 350.183C168.917 350.222 165.353 352.214 161.982 354.14Z" fill="#1565C0"/>
<path d="M175.978 358.615C178.678 358.606 181.362 359.074 183.933 360.002C186.514 360.945 188.801 362.703 190.521 365.065C191.022 365.726 191.378 366.509 191.561 367.352C191.716 368.225 194.246 368.749 193.687 369.343C195.386 369.037 194.983 369.936 196.706 369.919C198.428 369.901 200.291 369.404 201.323 367.859C202.04 366.589 202.359 365.087 202.231 363.59C202.253 362.554 202.079 361.524 201.719 360.57C200.943 358.737 199.158 357.75 197.513 356.904L183.653 349.772C182.849 349.291 181.986 348.947 181.092 348.751C180.34 348.671 179.582 348.691 178.834 348.812L172.556 349.624C173.929 350.623 175.047 352.008 175.799 353.641C176.552 355.274 176.913 357.099 176.848 358.938" fill="#212121"/>
<path d="M381.887 385.264L493.261 411.548L493.299 411.558L688.367 457.613L697.297 453.322L697.267 452.569L696.684 437.64L382.002 361.433L381.887 385.264Z" fill="#FFB300"/>
</svg>
